<svg xmlns="http://www.w3.org/2000/svg" width="18.201" height="18.202" viewBox="0 0 18.201 18.202">
  <g id="Group_113" data-name="Group 113" transform="translate(504.667 -596.019)">
    <path id="Path_3825" data-name="Path 3825" d="M-489.229,603.3h.336a.584.584,0,0,1,.5.279.565.565,0,0,1,.1.321c0,.175,0,.349,0,.524,0,.069.017.091.088.09.459,0,.917.005,1.376,0a.337.337,0,0,1,.359.359q-.005,4.193,0,8.386a.308.308,0,0,1-.208.337.315.315,0,0,1-.113.019h-5.125a.3.3,0,0,1-.319-.322q0-.834,0-1.667,0-2.592,0-5.183c0-.1,0-.1-.1-.1-.24,0-.48,0-.721,0-.069,0-.086.022-.085.088,0,.165,0,.33,0,.495a1.184,1.184,0,0,1-.764,1.145,1.127,1.127,0,0,1-.4.085c-.388.012-.776.006-1.165.007-.094,0-.094,0-.094.1q0,.2,0,.408c0,.1,0,.1.094.1.568,0,1.136.006,1.7,0a.922.922,0,0,1,.882.613.912.912,0,0,1-.518,1.14,1.027,1.027,0,0,1-.39.072c-.561,0-1.121,0-1.682,0-.074,0-.094.02-.093.094,0,.245,0,.49,0,.735,0,.064.019.082.083.081q.855,0,1.711,0a.3.3,0,0,1,.313.21.335.335,0,0,1,.016.114c0,.187,0,.374,0,.56a.1.1,0,0,0,.072.108.908.908,0,0,1,.507.616.926.926,0,0,1-.39.98.91.91,0,0,1-1.335-.421.91.91,0,0,1,.482-1.183.108.108,0,0,0,.052-.074c.007-.07,0-.141,0-.211s-.016-.093-.088-.092c-.415,0-.83,0-1.245,0-.18,0-.171,0-.183.178a.222.222,0,0,0,.146.247.86.86,0,0,1,.432.565.906.906,0,0,1-.405,1,.911.911,0,0,1-1.317-.432.915.915,0,0,1,.481-1.183.106.106,0,0,0,.052-.074c.007-.079,0-.16,0-.24,0-.043-.014-.061-.059-.061h-1.4c-.046,0-.059.021-.058.062,0,.078,0,.155,0,.233a.085.085,0,0,0,.061.086.908.908,0,0,1,.516.609.909.909,0,0,1-.586,1.086.914.914,0,0,1-1.136-.514.912.912,0,0,1,.285-1.07.871.871,0,0,1,.187-.11.092.092,0,0,0,.064-.1q0-.284,0-.568a.3.3,0,0,1,.327-.325c.568,0,1.136,0,1.7,0,.073,0,.1-.019.094-.093,0-.245,0-.49,0-.735,0-.064-.018-.082-.082-.082q-.863,0-1.725,0a.9.9,0,0,1-.727-.349.908.908,0,0,1,.266-1.355.882.882,0,0,1,.451-.118c.573,0,1.145,0,1.718,0,.1,0,.1,0,.1-.1,0-.143,0-.286,0-.43,0-.058-.019-.075-.075-.074-.366,0-.733,0-1.1,0a1.234,1.234,0,0,1-.791-.262,1.169,1.169,0,0,1-.458-.88c-.012-.189,0-.378,0-.568,0-.108,0-.108-.105-.108h-2.431c-.539,0-1.077,0-1.616,0-.068,0-.091.017-.091.089q0,2.839,0,5.678,0,.735,0,1.471a.312.312,0,0,1-.347.345q-.564,0-1.128,0a.312.312,0,0,1-.347-.345q0-4.361,0-8.721a.306.306,0,0,1,.336-.339c.364,0,.728,0,1.092,0,.071,0,.091-.022.089-.091,0-.167,0-.335,0-.5a.3.3,0,0,1,.319-.318c.07,0,.141,0,.211,0s.078-.015.077-.074q-.005-.229,0-.459c0-.06-.023-.073-.077-.073q-.564,0-1.128,0a.915.915,0,0,1-.869-.62.916.916,0,0,1-.047-.285q0-1.525,0-3.05a.9.9,0,0,1,.9-.9q2.137,0,4.273,0a.89.89,0,0,1,.864.687,1.111,1.111,0,0,1,.031.237q0,1.5,0,3a.89.89,0,0,1-.506.835.864.864,0,0,1-.413.1c-.371,0-.743,0-1.114,0-.069,0-.093.017-.091.089.006.145,0,.291,0,.437,0,.059.015.083.078.079s.155,0,.233,0a.3.3,0,0,1,.3.3q0,.269,0,.539c0,.058.019.074.076.074q.677,0,1.354,0c.069,0,.086-.023.085-.087,0-.3-.013-.593,0-.888a1.167,1.167,0,0,1,.7-1.035,1.153,1.153,0,0,1,.528-.114c.172,0,.345,0,.517,0,.051,0,.075-.011.074-.068,0-.158,0-.315,0-.473,0-.048-.016-.064-.063-.063-.129,0-.257,0-.386,0a.759.759,0,0,1-.765-.759q0-.386,0-.772a.747.747,0,0,1,.739-.745q1.383-.006,2.766,0a.75.75,0,0,1,.743.756q0,.364,0,.728a.747.747,0,0,1-.48.736.8.8,0,0,1-.261.053c-.133.009-.267,0-.4,0-.051,0-.074.012-.073.069,0,.155,0,.311,0,.466,0,.055.02.071.073.07.175,0,.349,0,.524,0a1.19,1.19,0,0,1,1.087.653,1.045,1.045,0,0,1,.133.486c.006.3,0,.6,0,.9,0,.063.016.083.081.083q.83,0,1.66,0c.062,0,.078-.02.077-.079,0-.172,0-.345,0-.517a.618.618,0,0,1,.616-.62c.223.006.446,0,.67,0a.114.114,0,0,0,.107-.057l1.226-1.843q.093-.139.187-.277c.03-.043.031-.069-.022-.1a1.051,1.051,0,0,1-.506-1,.9.9,0,0,1,.134-.425.1.1,0,0,0-.02-.149q-.8-.8-1.6-1.6c-.043-.044-.07-.045-.119,0a.376.376,0,0,0-.147.337,1.425,1.425,0,0,1-.38,1.044c-.035.04-.046.068-.01.118a.289.289,0,0,1-.055.4.287.287,0,0,1-.4-.008c-.132-.125-.26-.254-.387-.384-.046-.047-.077-.052-.132-.007a.907.907,0,0,1-1.428-.381.88.88,0,0,1,.133-.879c.068-.089.069-.088-.012-.17-.116-.117-.234-.232-.348-.351a.289.289,0,0,1-.051-.349.29.29,0,0,1,.283-.166.459.459,0,0,1,.155.054.073.073,0,0,0,.1-.009,1.5,1.5,0,0,1,.608-.341,1.429,1.429,0,0,1,.54-.05.19.19,0,0,0,.166-.065,5.413,5.413,0,0,1,.462-.442.905.905,0,0,1,1.375.385.879.879,0,0,1,0,.678c-.024.058.009.09.044.125l1.326,1.324c.118.118.238.235.353.355a.116.116,0,0,0,.142.036,1.053,1.053,0,0,1,1.233.465,1.061,1.061,0,0,1-.493,1.524.263.263,0,0,1-.089.031c-.15.006-.21.118-.28.223q-.62.935-1.242,1.868C-489.193,603.234-489.2,603.255-489.229,603.3Zm-8.764,1.967c0,.553,0,1.106,0,1.66a.606.606,0,0,0,.622.619h1.1c.095,0,.1,0,.1-.1,0-.531,0-1.063,0-1.594,0-.074-.021-.1-.094-.094-.17,0-.34,0-.509,0a.314.314,0,0,1-.3-.228.321.321,0,0,1,.1-.315.358.358,0,0,1,.254-.067h1.456c.119,0,.238,0,.356.009a.3.3,0,0,1,.234.4.312.312,0,0,1-.315.2c-.165,0-.33,0-.495,0-.063,0-.084.016-.084.082q0,.812,0,1.623c0,.064.019.083.083.082.371,0,.742,0,1.114,0a.6.6,0,0,0,.621-.62c0-1.1,0-2.2,0-3.3a.619.619,0,0,0-.62-.622q-1.5.007-3,0a.626.626,0,0,0-.627.632C-497.986,604.173-497.992,604.719-497.992,605.265Zm-3.646-4.09c.779,0,1.557,0,2.336,0,.072,0,.1-.017.1-.093,0-.665,0-1.329,0-1.994a.306.306,0,0,0-.339-.337h-4.17a.3.3,0,0,0-.339.342q0,.994,0,1.987c0,.094,0,.095.1.095ZM-489.347,613c.725,0,1.451,0,2.176,0,.072,0,.1-.018.1-.093q0-.819,0-1.638c0-.071-.021-.09-.09-.09q-2.187,0-4.374,0c-.062,0-.084.015-.083.081q0,.823,0,1.645c0,.075.022.093.095.093C-490.8,613-490.075,613-489.347,613Zm0-4.243c-.733,0-1.465,0-2.2,0-.066,0-.081.022-.081.084q0,.822,0,1.645c0,.068.017.092.089.091q2.183,0,4.367,0c.077,0,.092-.025.092-.1,0-.541,0-1.082,0-1.623,0-.1,0-.1-.1-.1Zm0-2.425q-1.1,0-2.19,0c-.064,0-.089.013-.088.084q0,.822,0,1.645c0,.072.023.088.091.088q2.179,0,4.359,0c.1,0,.1,0,.1-.1,0-.543,0-1.087,0-1.63,0-.076-.024-.092-.1-.092C-487.9,606.335-488.622,606.334-489.347,606.334Zm-14.71,3.491v.757c0,.878,0,1.756,0,2.634,0,.076.024.094.1.091.136-.005.272,0,.407,0,.1,0,.1,0,.1-.1q0-3.242,0-6.484c0-.1,0-.2,0-.306,0-.066-.021-.082-.084-.081q-.222.006-.444,0c-.061,0-.078.019-.078.079Q-504.056,608.118-504.057,609.825Zm13.945-4.1h0q1.474,0,2.948,0c.066,0,.09-.018.087-.086,0-.138,0-.277,0-.415,0-.1,0-.1-.1-.1h-4.477c-.468,0-.937,0-1.4,0-.06,0-.081.018-.079.079,0,.146,0,.291,0,.437,0,.069.017.091.089.091Q-491.582,605.722-490.112,605.724Zm-11.216-.6h-1.434c-.405,0-.81,0-1.216,0-.066,0-.083.021-.081.084,0,.133,0,.267,0,.4s-.013.123.119.123h3.916c.446,0,.893,0,1.339,0,.064,0,.084-.019.082-.083,0-.141,0-.281,0-.422,0-.1,0-.1-.1-.1Zm5.458-3.945h1.332a.16.16,0,0,0,.183-.182q0-.349,0-.7a.158.158,0,0,0-.178-.179h-2.671a.159.159,0,0,0-.179.179q0,.346,0,.692c0,.132.057.188.191.188Zm-5.767,1.212h2.111a.276.276,0,0,0,.293-.2,1.207,1.207,0,0,0,.024-.294c0-.1,0-.1-.1-.1h-3.567c-.364,0-.728,0-1.092,0-.072,0-.095.022-.088.091a.94.94,0,0,1,0,.16.327.327,0,0,0,.353.357C-503.016,602.384-502.327,602.388-501.637,602.388Zm5.767,6.978h-.422q-.855,0-1.71,0a.293.293,0,0,0-.284.227.307.307,0,0,0,.122.32.413.413,0,0,0,.243.057h3.93c.087,0,.175,0,.262,0a.3.3,0,0,0,.282-.312.3.3,0,0,0-.311-.288Zm3.561-12.056a.9.9,0,0,0-.569.2c-.052.043-.055.074-.006.123q.58.576,1.157,1.155c.061.061.079.061.131-.008a.9.9,0,0,0,.169-.787A.9.9,0,0,0-492.309,597.31Zm2.505,6.6h-.837c-.043,0-.075,0-.074.06,0,.16,0,.32,0,.48,0,.047.017.063.064.063q.844,0,1.688,0c.051,0,.067-.019.067-.068,0-.153,0-.306,0-.458,0-.06-.017-.08-.078-.079C-489.251,603.908-489.527,603.907-489.8,603.907Zm1.821-4.245a.456.456,0,0,0-.456.449.461.461,0,0,0,.453.456.463.463,0,0,0,.453-.449A.454.454,0,0,0-487.983,599.662Zm-13.646,4.548h-.7c-.067,0-.163-.02-.195.015s-.014.132-.021.2.018.086.085.086c.488,0,.975,0,1.463,0,.07,0,.141,0,.211,0,.044,0,.061-.017.059-.06a1.223,1.223,0,0,1,0-.16c.006-.065-.019-.083-.083-.082C-501.08,604.212-501.354,604.21-501.628,604.21Zm5.759-2.424h0c-.082,0-.165,0-.247,0-.039,0-.057.013-.057.055q0,.244,0,.487c0,.043.015.061.06.06q.24,0,.48,0c.047,0,.064-.017.064-.064q0-.24,0-.48c0-.044-.016-.06-.06-.059C-495.709,601.788-495.789,601.786-495.869,601.786Zm-5.764,1.815c.077,0,.155,0,.232,0,.048,0,.071-.013.07-.065,0-.16,0-.32,0-.479,0-.043-.016-.061-.06-.06-.162,0-.324,0-.487,0-.038,0-.059.011-.059.053q0,.247,0,.494c0,.046.021.058.063.057C-501.792,603.6-501.712,603.6-501.633,603.6ZM-491,597.338a2.672,2.672,0,0,0,.234-.257.27.27,0,0,0-.026-.343.292.292,0,0,0-.313-.1.963.963,0,0,0-.317.271Zm-4.873,16.27a.3.3,0,0,0,.3-.3.3.3,0,0,0-.3-.3.3.3,0,0,0-.3.3A.3.3,0,0,0-495.871,613.609Zm-1.821-.3a.3.3,0,0,0-.3-.3.3.3,0,0,0-.3.3.3.3,0,0,0,.3.305A.3.3,0,0,0-497.693,613.312Zm4.244,0a.3.3,0,0,0-.3-.3.3.3,0,0,0-.3.3.3.3,0,0,0,.3.3A.3.3,0,0,0-493.449,613.31Zm.717-14.356c.053-.02.108-.036.159-.06.034-.016.041-.042.009-.074q-.173-.17-.342-.344c-.037-.038-.061-.027-.083.013a.29.29,0,0,0-.006.3A.316.316,0,0,0-492.732,598.954Z" transform="translate(0 0)"/>
    <path id="Path_3826" data-name="Path 3826" d="M-4.448,1127.424c-.153,0-.305,0-.458,0a.285.285,0,0,1-.3-.3.29.29,0,0,1,.3-.307q.458,0,.916,0a.291.291,0,0,1,.305.306.287.287,0,0,1-.308.3c-.153,0-.305,0-.458,0Z" transform="translate(-484.905 -515.329)"/>
    <path id="Path_3827" data-name="Path 3827" d="M-4.605,1044.138c-.158,0-.315,0-.473,0a.293.293,0,0,1-.278-.207.3.3,0,0,1,.106-.338.345.345,0,0,1,.174-.06c.31-.006.621-.006.931,0a.293.293,0,0,1,.3.309.291.291,0,0,1-.306.3c-.078,0-.155,0-.233,0Z" transform="translate(-484.747 -434.468)"/>
    <path id="Path_3828" data-name="Path 3828" d="M-4.525,960.262c.153,0,.306,0,.458,0a.288.288,0,0,1,.3.3.29.29,0,0,1-.3.305q-.466,0-.931,0a.294.294,0,0,1-.289-.231.3.3,0,0,1,.18-.356.313.313,0,0,1,.113-.019C-4.836,960.261-4.681,960.262-4.525,960.262Z" transform="translate(-484.823 -353.628)"/>
  </g>
</svg>
